{"title":"The Willis Family - s01e01 - Mama - HDTV 1080","uid":12043990,"size":1365964474,"categoryP":"video","categoryS":"tv_shows","magnet":"?xt=urn:btih:613d34f702c8eb1b0d11a1d04f8bcd00eae5016c&amp;dn=The+Willis+Family+-+s01e01+-+Mama+-+HDTV+1080&amp;tr=udp%3A%2F%2Ftracker.openbittorrent.com%3A80&amp;tr=udp%3A%2F%2Fopen.demonii.com%3A1337&amp;tr=udp%3A%2F%2Ftracker.coppersurfer.tk%3A6969&amp;tr=udp%3A%2F%2Fexodus.desync.com%3A6969","seeders":2,"leechers":0,"uploader":null,"files":14,"time":1434846004,"description":"The Willis Family follows a musically gifted family of fourteen--four boys, eight girls, and parents Brenda and Toby--as they make music at home and on the road.\n\nGeneral\nComplete name                            : The Willis Family - s01e01 - Mama.mp4\nFormat                                   : MPEG-4\nFormat profile                           : Base Media / Version 2\nCodec ID                                 : mp42\nFile size                                : 973 MiB\nDuration                                 : 36mn 16s\nOverall bit rate mode                    : Variable\nOverall bit rate                         : 3 752 Kbps\nEncoded date                             : UTC 2015-06-07 21:36:31\nTagged date                              : UTC 2015-06-07 21:36:31\nÂ©TIM                                     : 00;00;00;00\nÂ©TSC                                     : 30000\nÂ©TSZ                                     : 1001\n\nVideo\nID                                       : 1\nFormat                                   : AVC\nFormat/Info                              : Advanced Video Codec\nFormat profile                           : &lt;a class=&quot;__cf_email__&quot; href=&quot;/cdn-cgi/l/email-protection&quot; data-cfemail=&quot;f2bf939b9cb2bec6dcc0&quot;&gt;[email&amp;#160;protected]&lt;/a&gt;&lt;script data-cfhash='f9e31' type=&quot;text/javascript&quot;&gt;\n/* &lt;![CDATA[ */!function(){try{var t=&quot;currentScript&quot;in document?document.currentScript:function(){for(var t=document.getElementsByTagName(&quot;script&quot;),e=t.length;e--;)if(t[e].getAttribute(&quot;data-cfhash&quot;))return t[e]}();if(t&amp;&amp;t.previousSibling){var e,r,n,i,c=t.previousSibling,a=c.getAttribute(&quot;data-cfemail&quot;);if(a){for(e=&quot;&quot;,r=parseInt(a.substr(0,2),16),n=2;a.length-n;n+=2)i=parseInt(a.substr(n,2),16)^r,e+=String.fromCharCode(i);e=document.createTextNode(e),c.parentNode.replaceChild(e,c)}t.parentNode.removeChild(t);}}catch(u){}}()/* ]]&gt; */&lt;/script&gt;\nFormat settings, CABAC                   : Yes\nFormat settings, ReFrames                : 3 frames\nCodec ID                                 : avc1\nCodec ID/Info                            : Advanced Video Coding\nDuration                                 : 36mn 16s\nBit rate                                 : 3 494 Kbps\nWidth                                    : 1 920 pixels\nHeight                                   : 1 080 pixels\nDisplay aspect ratio                     : 16:9\nFrame rate mode                          : Constant\nFrame rate                               : 29.970 fps\nStandard                                 : NTSC\nColor space                              : YUV\nChroma subsampling                       : 4:2:0\nBit depth                                : 8 bits\nScan type                                : Progressive\nBits/(Pixel*Frame)                       : 0.056\nStream size                              : 906 MiB (93%)\nLanguage                                 : English\nEncoded date                             : UTC 2015-06-07 21:36:32\nTagged date                              : UTC 2015-06-07 21:36:32\nColor range                              : Limited\n\nAudio\nID                                       : 2\nFormat                                   : AAC\nFormat/Info                              : Advanced Audio Codec\nFormat profile                           : LC\nCodec ID                                 : 40\nDuration                                 : 36mn 16s\nSource duration                          : 36mn 16s\nBit rate mode                            : Variable\nBit rate                                 : 253 Kbps\nMaximum bit rate                         : 356 Kbps\nChannel(s)                               : 2 channels\nChannel positions                        : Front: L R\nSampling rate                            : 48.0 KHz\nCompression mode                         : Lossy\nStream size                              : 65.7 MiB (7%)\nSource stream size                       : 65.7 MiB (7%)\nLanguage                                 : English\nEncoded date                             : UTC 2015-06-07 21:36:32\nTagged date                              : UTC 2015-06-07 21:36:32","torrent":{"xt":"urn:btih:613d34f702c8eb1b0d11a1d04f8bcd00eae5016c","amp;dn":"The+Willis+Family+-+s01e01+-+Mama+-+HDTV+1080","amp;tr":["udp%3A%2F%2Ftracker.openbittorrent.com%3A80","udp%3A%2F%2Fopen.demonii.com%3A1337","udp%3A%2F%2Ftracker.coppersurfer.tk%3A6969","udp%3A%2F%2Fexodus.desync.com%3A6969"],"infoHash":"613d34f702c8eb1b0d11a1d04f8bcd00eae5016c","infoHashBuffer":{"type":"Buffer","data":[97,61,52,247,2,200,235,27,13,17,161,208,79,139,205,0,234,229,1,108]},"announce":[],"urlList":[]}}